<?xml version="1.0" encoding="UTF-8"?>
<svg width="28px" height="28px" viewBox="0 0 28 28" version="1.1" xmlns="http://www.w3.org/2000/svg" xmlns:xlink="http://www.w3.org/1999/xlink">
    <!-- Generator: Sketch 52.2 (67145) - http://www.bohemiancoding.com/sketch -->
    <title>icon/退出</title>
    <desc>Created with Sketch.</desc>
    <defs>
        <rect id="path-1" x="0" y="0" width="28" height="28"></rect>
    </defs>
    <g id="Page-1" stroke="none" stroke-width="1" fill="none" fill-rule="evenodd">
        <g id="登录-短信验证码登录-copy" transform="translate(-614.000000, -168.000000)">
            <g id="分组-4" transform="translate(594.000000, 158.000000)">
                <g id="分组-3" transform="translate(20.000000, 6.000000)">
                    <g id="icon/退出" transform="translate(0.000000, 4.000000)">
                        <mask id="mask-2" fill="white">
                            <use xlink:href="#path-1"></use>
                        </mask>
                        <use id="Mask" fill="#FFFFFF" fill-rule="nonzero" opacity="0.01" xlink:href="#path-1"></use>
                        <path d="M27.7261344,13.4041548 L27.7261344,13.4041238 C28.0806088,13.7548384 28.0806088,14.3318226 27.7261344,14.6825062 L22.1789265,20.2297141 C21.8282118,20.5803977 21.2512276,20.5804288 20.900544,20.2297141 C20.5498604,19.8789995 20.5498604,19.3020153 20.900544,18.9513317 L24.924239,14.9276367 L12.4043748,14.9276367 C11.9065943,14.9276367 11.4993278,14.5203702 11.4993278,14.0225897 C11.4993278,13.5248091 11.9065943,13.1175426 12.4043748,13.1175426 L24.8827573,13.1175426 L20.900544,9.13532937 C20.5498604,8.7846147 20.5498293,8.2076305 20.900544,7.85694691 C21.2512587,7.50626332 21.8282429,7.50626332 22.1789265,7.85694691 L27.7261344,13.4041548 Z M16.5034998,21.9116344 C17.0012804,21.9116344 17.4085469,22.3189009 17.4085469,22.8166815 L17.4085469,23.8122115 C17.4085469,25.4752397 16.0547516,26.829035 14.3917234,26.829035 L3.05217704,26.829035 C1.38914881,26.829035 0.0353535354,25.4752397 0.0353535354,23.8122115 L0.0353535354,4.28955078 C0.0353535354,2.62652255 1.38914881,1.27272727 3.05217704,1.27272727 L14.3917234,1.27272727 C16.0547516,1.27272727 17.4085469,2.62652255 17.4085469,4.28955078 L17.4085469,5.28508079 C17.4085469,5.78662109 17.0050401,6.19012784 16.5034998,6.19012784 C16.0019595,6.19012784 15.5984528,5.78665217 15.5984528,5.28508079 L15.5984528,4.28955078 C15.5984528,3.62584339 15.0554308,3.08282138 14.3917234,3.08282138 L3.05217704,3.08282138 C2.38846966,3.08282138 1.84544764,3.62584339 1.84544764,4.28955078 L1.84544764,23.8122115 C1.84544764,24.4759189 2.38846966,25.0189409 3.05217704,25.0189409 L14.3917234,25.0189409 C15.0554308,25.0189409 15.5984528,24.4759189 15.5984528,23.8122115 L15.5984528,22.8166815 C15.5984528,22.3151412 16.0019285,21.9116344 16.5034998,21.9116344 Z" id="合并形状" fill="#FFFFFF" mask="url(#mask-2)"></path>
                    </g>
                </g>
            </g>
        </g>
    </g>
</svg>