<?xml version="1.0" encoding="UTF-8"?>
<svg width="50px" height="50px" viewBox="0 0 50 50" version="1.1" xmlns="http://www.w3.org/2000/svg" xmlns:xlink="http://www.w3.org/1999/xlink">
    <!-- Generator: Sketch 52.2 (67145) - http://www.bohemiancoding.com/sketch -->
    <title>icon/电话</title>
    <desc>Created with Sketch.</desc>
    <g id="Page-1" stroke="none" stroke-width="1" fill="none" fill-rule="evenodd">
        <g id="登录-短信验证码登录-copy" transform="translate(-650.000000, -457.000000)">
            <g id="分组-2" transform="translate(30.000000, 358.000000)">
                <g id="icon/电话" transform="translate(620.000000, 99.000000)">
                    <path d="M15.3233976,14.0395269 C16.6996087,13.0738919 19.4782445,12.9151573 19.7665935,13.0342082 C19.9238748,13.1003476 21.1690181,15.5607328 21.6146484,16.724786 C22.2830938,18.4840937 22.2306667,20.4153637 22.2306667,20.4153637 C22.2306667,20.4153637 22.4796954,20.3359965 21.6146484,21.0238461 C20.5792134,21.8572024 19.8976612,21.4206824 19.7665935,22.2540387 C19.6355258,23.0873949 20.6447472,25.772654 22.8335783,27.7832914 C25.0224093,29.7939287 27.001532,30.8124753 28.3646363,30.8521589 C29.0592952,30.8786146 28.9675478,29.1854464 29.5966729,28.3917737 C29.767061,28.1801277 32.12628,28.2859507 34.5117126,29.6219663 C36.0583118,30.4817783 36.8185046,31.6722873 36.9757859,32.0823515 C37.2772417,32.889252 34.6952075,36.0242589 33.0568609,36.659197 C31.6282227,37.2147678 29.4918187,37.0692612 27.1325997,36.3814116 C24.0656149,35.4819159 16.3588326,31.0241213 14.091361,23.6032822 C12.1253451,18.0078901 13.2525275,16.1295315 14.091361,15.0845292 C14.5763115,14.5289584 14.9433012,14.3040844 15.3233976,14.0395269 Z" id="电话" fill="#FF2222" fill-rule="nonzero"></path>
                    <circle id="Oval-5" stroke="#FF2222" cx="25" cy="25" r="24.5"></circle>
                </g>
            </g>
        </g>
    </g>
</svg>