<?xml version="1.0" encoding="UTF-8"?>
<svg width="229px" height="50px" viewBox="0 0 229 50" version="1.1" xmlns="http://www.w3.org/2000/svg" xmlns:xlink="http://www.w3.org/1999/xlink">
    <!-- Generator: Sketch 52.2 (67145) - http://www.bohemiancoding.com/sketch -->
    <title>分组</title>
    <desc>Created with Sketch.</desc>
    <defs>
        <rect id="path-1" x="0" y="0" width="50" height="50" rx="5"></rect>
    </defs>
    <g id="Page-1" stroke="none" stroke-width="1" fill="none" fill-rule="evenodd">
        <g id="登录-短信验证码登录（未输入）" transform="translate(-260.000000, -1244.000000)">
            <g id="分组" transform="translate(260.000000, 1244.000000)">
                <g id="合并形状-copy-3">
                    <mask id="mask-2" fill="white">
                        <use xlink:href="#path-1"></use>
                    </mask>
                    <use id="Mask" fill="#E5E5E5" fill-rule="nonzero" xlink:href="#path-1"></use>
                    <path d="M8.80952381,31.6455215 L8.80952381,24.4047619 C8.80952381,24.1417692 9.02272155,23.9285714 9.28571429,23.9285714 L13.3333333,23.9285714 C13.5963261,23.9285714 13.8095238,24.1417692 13.8095238,24.4047619 L13.8095238,27.9876057 L29.8405213,16.2595979 C30.8631127,15.5114872 32.2383952,15.4621524 33.3119623,16.1350688 L53.4587036,28.7631298 L51.2987006,32.1862288 L33.3743341,21.1730814 C32.2623773,20.4898693 30.8476945,20.546821 29.794256,21.3172067 L-1.27296915,44.0368497 L-3.66774733,40.7736829 L8.80952381,31.6455215 Z" id="路径" fill="#FFFFFF" fill-rule="nonzero" mask="url(#mask-2)"></path>
                </g>
                <path d="M71.625,38.125 L71.625,35.5 C73.2083413,33.9999925 73.9583337,31.9583463 73.875,29.375 L73.875,11.375 L84.25,11.375 L84.25,9.375 L88.875,9.375 L88.875,11.375 L99,11.375 L99,15.5 C99.0833338,18.16668 97.79168,19.4583338 95.125,19.375 L77.75,19.375 L77.75,28.5 C77.9166675,32.833355 75.8750213,36.0416563 71.625,38.125 Z M89.625,37.5 L89.625,35.125 L92.375,35.125 C93.5416725,35.125 94.125,34.625005 94.125,33.625 L94.125,29.875 L85.75,29.875 C85.3333313,33.4583512 82.8333562,36.24999 78.25,38.25 L78.25,35.5 C81.0000137,34.0833262 82.2916675,31.3333538 82.125,27.25 L82.125,25.125 L78.5,25.125 L78.5,22.625 L87.125,22.625 L87.125,20.25 L91.25,20.25 L91.25,22.625 L100.375,22.625 L100.375,25.125 L86,25.125 L86,26.75 C85.9166663,27.0000013 85.875,27.2083325 85.875,27.375 L97.75,27.375 L97.75,33.875 C97.75,36.2916788 96.5000125,37.5 94,37.5 L89.625,37.5 Z M77.75,13.875 L77.75,16.875 L93.75,16.875 C94.8333387,16.9583338 95.3333338,16.4583387 95.25,15.375 L95.25,13.875 L77.75,13.875 Z M114.625,38 L114.625,17.125 L121.125,17.125 L121.125,9.25 L124.875,9.25 L124.875,17.125 L131.375,17.125 L131.375,34 C131.458334,36.5000125 130.16668,37.7083338 127.5,37.625 L124.625,37.625 L124.625,35 L126.25,35 C127.250005,35.0833338 127.708334,34.7083375 127.625,33.875 L127.625,31.5 L118.25,31.5 L118.25,38 L114.625,38 Z M104.375,20.5 L104.375,18 L113,18 L113,20.5 L110.375,20.5 L110.375,24.75 L113.5,24.75 L113.5,27.25 L110.375,27.25 L110.375,33.375 C111.208337,33.2083325 112.208327,32.7083375 113.375,31.875 L113.375,34.625 C111.291656,36.0416738 109.041679,37.1249963 106.625,37.875 L106.625,27.25 L103.625,27.25 L103.625,24.75 L106.625,24.75 L106.625,20.5 L104.375,20.5 Z M103.375,17.375 L103.375,15.25 C105.291676,13.91666 106.333332,11.9583462 106.5,9.375 L110.125,9.375 C109.874999,10.4583388 109.625001,11.3749963 109.375,12.125 L113.625,12.125 L113.625,14.625 L107.875,14.625 C106.874995,15.8750063 105.37501,16.7916638 103.375,17.375 Z M118.25,25.625 L118.25,29 L127.625,29 L127.625,25.625 L118.25,25.625 Z M118.25,19.75 L118.25,23 L127.625,23 L127.625,19.75 L118.25,19.75 Z M116.25,15.875 C115.333329,14.208325 114.791668,12.2500113 114.625,10 L117.875,10 C118.125001,12.0833437 118.58333,14.0416575 119.25,15.875 L116.25,15.875 Z M126.625,16 C127.375004,14.333325 127.874999,12.333345 128.125,10 L131.375,10 C131.041665,12.4166788 130.500004,14.4166587 129.75,16 L126.625,16 Z M137.5,21.25 L137.5,18.625 L162.375,18.625 L162.375,21.25 L152,21.25 L152,25.75 L161.625,25.75 L161.625,28.375 L152,28.375 L152,34.375 L164.375,34.375 L164.375,36.75 L135.625,36.75 L135.625,34.375 L147.75,34.375 L147.75,28.375 L138.25,28.375 L138.25,25.75 L147.75,25.75 L147.75,21.25 L137.5,21.25 Z M136.375,17.125 L136.375,11.75 L147.75,11.75 L147.75,9.25 L152.375,9.25 L152.375,11.75 L163.625,11.75 L163.625,17.125 L159.625,17.125 L159.625,14.375 L140.375,14.375 L140.375,17.125 L136.375,17.125 Z M156.625,34.25 C156.541666,32.7499925 156.208336,31.2500075 155.625,29.75 L159,29.75 C159.750004,31.3333413 160.249999,32.8333262 160.5,34.25 L156.625,34.25 Z M167.75,21.375 L167.75,19.125 C170.666681,16.791655 172.374998,13.5416875 172.875,9.375 L177,9.375 C176.833333,10.375005 176.625001,11.2916625 176.375,12.125 L183.25,12.125 L183.25,14.625 C182.666664,25.625055 177.583381,33.45831 168,38.125 L168,35.375 C172.166687,32.374985 175.041659,29.0833512 176.625,25.5 C174.541656,24.5833287 172.541676,23.9166687 170.625,23.5 L170.625,20.75 C173.458348,21.083335 175.833324,21.7083287 177.75,22.625 C178.41667,20.5416563 178.874999,17.8750163 179.125,14.625 L175.25,14.625 C173.999994,17.4583475 171.500019,19.708325 167.75,21.375 Z M185.375,38.125 L185.375,9.375 L189.25,9.375 L189.25,38.125 L185.375,38.125 Z M196.375,26.625 C193.874988,24.2083213 191.708342,22.5416713 189.875,21.625 L189.875,18.125 C192.875015,19.3750062 195.04166,20.66666 196.375,22 L196.375,26.625 Z M200.5,35 L200.5,11.5 L209.625,11.5 L209.625,31.125 C209.708334,33.7083462 208.541679,35 206.125,35 L200.5,35 Z M210.875,13.625 L210.875,11 L222.625,11 C224.291675,11 226.166656,10.7083363 228.25,10.125 L228.25,13 C228.166666,13 228.000001,13.0416662 227.75,13.125 C225.74999,13.458335 224.125006,13.625 222.875,13.625 L221.75,13.625 L221.75,24.25 L228.5,24.25 L228.5,26.875 L221.75,26.875 L221.75,33.875 C221.833334,36.4583462 220.54168,37.7083338 217.875,37.625 L214.375,37.625 L214.375,35 L216.375,35 C217.458339,35.0833338 217.958334,34.625005 217.875,33.625 L217.875,26.875 L210.5,26.875 L210.5,24.25 L217.875,24.25 L217.875,13.625 L210.875,13.625 Z M203.75,32.5 L205.125,32.5 C206.041671,32.5 206.5,32.0833375 206.5,31.25 L206.5,14 L203.75,14 L203.75,32.5 Z M223.375,22.125 C223.958336,20.2916575 224.416665,18.1666787 224.75,15.75 L227.875,15.75 C227.541665,18.3333462 227.04167,20.458325 226.375,22.125 L223.375,22.125 Z M213.125,22.25 C212.45833,20.8333262 211.958335,18.7083475 211.625,15.875 L214.75,15.875 C214.916667,18.208345 215.374996,20.3333237 216.125,22.25 L213.125,22.25 Z" id="房销宝外呼" fill="#D8D8D8"></path>
            </g>
        </g>
    </g>
</svg>